<?xml version="1.0" standalone="no"?>
<!DOCTYPE svg PUBLIC "-//W3C//DTD SVG 20010904//EN"
 "http://www.w3.org/TR/2001/REC-SVG-20010904/DTD/svg10.dtd">
<svg version="1.0" xmlns="http://www.w3.org/2000/svg"
 width="96.000000pt" height="96.000000pt" viewBox="0 0 96.000000 96.000000"
 preserveAspectRatio="xMidYMid meet">

<g transform="translate(0.000000,96.000000) scale(0.100000,-0.100000)"
fill="#000000" stroke="none">
<path d="M383 849 c-113 -13 -180 -44 -225 -104 -45 -59 -81 -164 -76 -226 3
-39 6 -44 28 -44 23 0 25 4 31 60 6 69 44 158 82 196 71 69 333 85 466 29 27
-12 52 -28 55 -36 6 -16 -23 -38 -72 -55 -23 -8 -37 -23 -53 -60 -22 -48 -39
-63 -39 -35 0 7 -9 24 -20 38 -17 22 -29 26 -112 32 -172 13 -163 14 -163 -14
0 -22 6 -26 55 -37 30 -6 82 -12 116 -12 l61 -1 12 -42 c17 -57 28 -68 63 -68
27 0 32 6 61 70 20 45 38 72 51 76 12 4 33 15 48 25 14 11 28 19 31 19 13 0
37 -99 37 -151 0 -38 5 -61 15 -69 46 -38 61 77 25 194 -23 73 -70 141 -115
168 -71 41 -235 62 -362 47z"/>
<path d="M782 347 c-89 -159 -280 -225 -437 -153 -63 29 -123 80 -156 134 -22
34 -55 43 -65 17 -8 -20 37 -95 80 -133 165 -144 403 -141 555 7 60 58 104
139 90 164 -17 29 -36 19 -67 -36z"/>
</g>
</svg>
