<?xml version="1.0" standalone="no"?>
<!DOCTYPE svg PUBLIC "-//W3C//DTD SVG 20010904//EN"
 "http://www.w3.org/TR/2001/REC-SVG-20010904/DTD/svg10.dtd">
<svg version="1.0" xmlns="http://www.w3.org/2000/svg"
 width="24.000000pt" height="24.000000pt" viewBox="0 0 48.000000 48.000000"
 preserveAspectRatio="xMidYMid meet">

<g transform="translate(0.000000,48.000000) scale(0.100000,-0.100000)"
fill="#000000" stroke="none">
<path d="M163 421 c-52 -13 -84 -40 -105 -87 -20 -45 -21 -95 -3 -95 6 0 13
18 17 41 4 22 16 53 27 69 33 46 138 64 225 38 50 -15 55 -32 17 -51 -16 -9
-32 -25 -36 -36 -6 -20 -7 -20 -23 -1 -22 24 -142 39 -142 17 0 -14 42 -26 91
-26 22 0 30 -6 35 -24 9 -38 32 -40 54 -3 11 17 20 34 20 37 0 8 53 30 58 25
3 -2 7 -27 10 -55 6 -62 32 -72 32 -12 0 51 -38 122 -77 145 -36 21 -150 31
-200 18z"/>
<path d="M400 190 c0 -21 -63 -79 -102 -95 -67 -26 -122 -13 -177 41 -43 44
-61 53 -61 34 0 -23 35 -62 79 -88 90 -53 207 -27 267 59 14 21 23 43 19 48
-8 14 -25 14 -25 1z"/>
</g>
</svg>
